<svg width="40" height="40" viewBox="0 0 40 40" fill="none" xmlns="http://www.w3.org/2000/svg">
<g clip-path="url(#clip0_4_112)">
<path d="M20.0002 14.793C17.133 14.793 14.7932 17.1328 14.7932 20C14.7932 22.8672 17.133 25.207 20.0002 25.207C22.8674 25.207 25.2072 22.8672 25.2072 20C25.2072 17.1328 22.8674 14.793 20.0002 14.793ZM35.6174 20C35.6174 17.8438 35.6369 15.707 35.5158 13.5547C35.3947 11.0547 34.8244 8.83594 32.9963 7.00781C31.1642 5.17578 28.9494 4.60938 26.4494 4.48828C24.2932 4.36719 22.1564 4.38672 20.0041 4.38672C17.8478 4.38672 15.7111 4.36719 13.5588 4.48828C11.0588 4.60938 8.84003 5.17969 7.0119 7.00781C5.17987 8.83985 4.61347 11.0547 4.49237 13.5547C4.37128 15.7109 4.39081 17.8477 4.39081 20C4.39081 22.1523 4.37128 24.293 4.49237 26.4453C4.61347 28.9453 5.18378 31.1641 7.0119 32.9922C8.84394 34.8242 11.0588 35.3906 13.5588 35.5117C15.715 35.6328 17.8517 35.6133 20.0041 35.6133C22.1603 35.6133 24.2971 35.6328 26.4494 35.5117C28.9494 35.3906 31.1682 34.8203 32.9963 32.9922C34.8283 31.1602 35.3947 28.9453 35.5158 26.4453C35.6408 24.293 35.6174 22.1563 35.6174 20V20ZM20.0002 28.0117C15.5666 28.0117 11.9885 24.4336 11.9885 20C11.9885 15.5664 15.5666 11.9883 20.0002 11.9883C24.4338 11.9883 28.0119 15.5664 28.0119 20C28.0119 24.4336 24.4338 28.0117 20.0002 28.0117ZM28.34 13.5313C27.3049 13.5313 26.4689 12.6953 26.4689 11.6602C26.4689 10.625 27.3049 9.78907 28.34 9.78907C29.3752 9.78907 30.2111 10.625 30.2111 11.6602C30.2114 11.906 30.1632 12.1494 30.0693 12.3766C29.9754 12.6037 29.8376 12.8101 29.6638 12.9839C29.49 13.1577 29.2836 13.2955 29.0564 13.3895C28.8293 13.4834 28.5858 13.5316 28.34 13.5313V13.5313Z" fill="black"/>
<rect x="14" y="37" width="22" height="97" fill="#D9D9D9"/>
</g>
<defs>
<clipPath id="clip0_4_112">
<rect width="40" height="40" fill="white"/>
</clipPath>
</defs>
</svg>
