<svg width="33" height="26" viewBox="0 0 33 26" fill="none" xmlns="http://www.w3.org/2000/svg">
<path d="M10.3815 26C22.8312 26 29.6426 15.996 29.6426 7.32319C29.6426 7.04195 29.6362 6.75446 29.6233 6.47322C30.9483 5.54405 32.0918 4.39315 33 3.07459C31.766 3.60698 30.4558 3.95467 29.1141 4.10581C30.5268 3.28473 31.5845 1.99487 32.0912 0.475315C30.7623 1.23901 29.3089 1.77773 27.7935 2.06838C26.7724 1.01635 25.4224 0.319787 23.9521 0.0863747C22.4818 -0.147037 20.9731 0.0957069 19.6594 0.777077C18.3456 1.45845 17.3 2.54049 16.684 3.85592C16.0681 5.17134 15.9162 6.64688 16.2519 8.05441C13.5609 7.92347 10.9284 7.24565 8.52497 6.06488C6.12154 4.88412 4.00083 3.22677 2.30033 1.20029C1.43605 2.6452 1.17158 4.35501 1.56067 5.98221C1.94976 7.60941 2.96321 9.03191 4.39506 9.96059C3.32011 9.9275 2.26872 9.64686 1.32773 9.14187V9.22312C1.32677 10.7394 1.86738 12.2093 2.85768 13.3828C3.84797 14.5564 5.22682 15.3612 6.75984 15.6604C5.76408 15.9246 4.71898 15.9631 3.70541 15.7729C4.138 17.0769 4.97966 18.2175 6.11293 19.0354C7.24621 19.8533 8.61454 20.3077 10.027 20.3352C7.62908 22.1616 4.66699 23.1523 1.61777 23.1476C1.07702 23.1468 0.536799 23.1147 0 23.0514C3.09768 24.9784 6.70111 26.0019 10.3815 26Z" fill="black"/>
</svg>
